<svg width="700" height="610" viewBox="0 0 700 610" fill="none" xmlns="http://www.w3.org/2000/svg">
<g clip-path="url(#clip0_81_428)">
<path d="M631.147 317.302C631.238 392.747 602.077 465.29 549.793 519.68C546.641 522.98 543.403 526.201 540.081 529.342C535.02 534.157 529.788 538.785 524.386 543.226C473.856 584.858 410.773 608.252 345.316 609.635C343.135 609.684 340.946 609.709 338.749 609.709C286.545 609.709 220.886 581.826 161.3 543.226C156.37 540.033 151.484 536.766 146.642 533.424C144.379 531.877 142.126 530.308 139.885 528.717C116.904 512.489 95.0897 494.668 74.6041 475.386C61.1914 462.798 48.6138 449.349 36.9514 435.124C-8.83252 378.649 -18.9308 327.763 46.342 317.302C54.07 316.068 61.5704 314.748 68.843 313.344C79.3776 311.319 89.4594 309.133 99.0886 306.784C112.059 303.632 124.245 300.214 135.647 296.53C139.482 295.295 143.229 294.036 146.889 292.752C200.994 273.749 237.206 248.968 261.855 222.08C266.036 217.529 269.89 212.923 273.418 208.262C278.816 201.167 283.719 193.71 288.092 185.942C294.129 175.149 299.199 163.844 303.244 152.157L303.466 151.516C323.079 94.9419 317.112 42.4669 338.749 24.9039C431.238 -50.1792 546.385 56.7461 600.432 182.839C603.157 189.193 605.719 195.585 608.119 202.015C609.197 204.888 610.237 207.765 611.239 210.649C613.872 218.163 616.262 225.696 618.407 233.248C619.23 236.129 620.015 239.007 620.761 241.882C621.559 244.985 622.324 248.079 623.032 251.174C628.291 273.831 631.147 296.176 631.147 317.302Z" fill="#DCE3F1"/>
<path d="M345.316 609.635C343.135 609.684 340.946 609.709 338.749 609.709C286.545 609.709 220.886 581.826 161.3 543.226C156.37 540.033 151.484 536.766 146.642 533.424L150.889 507.582L279.451 490.513L343.975 539.852L345.316 609.635Z" fill="#2F2E41"/>
<path d="M351.505 148.182H333.185C332.618 148.183 332.074 148.408 331.672 148.809C331.271 149.211 331.046 149.755 331.045 150.322V168.65C331.046 168.931 331.101 169.209 331.209 169.468C331.317 169.727 331.474 169.962 331.673 170.16C331.872 170.358 332.108 170.515 332.367 170.622C332.627 170.728 332.905 170.783 333.185 170.782H351.505C352.071 170.782 352.615 170.558 353.016 170.159C353.417 169.759 353.643 169.217 353.645 168.65V150.322C353.643 149.755 353.417 149.212 353.017 148.811C352.616 148.41 352.072 148.184 351.505 148.182V148.182Z" fill="white"/>
<path d="M351.505 179.416H333.185C332.618 179.416 332.074 179.641 331.672 180.043C331.271 180.444 331.046 180.988 331.045 181.555V199.884C331.046 200.164 331.101 200.442 331.209 200.701C331.317 200.96 331.474 201.195 331.673 201.393C331.872 201.591 332.108 201.748 332.367 201.855C332.627 201.962 332.905 202.016 333.185 202.015H351.505C352.071 202.016 352.615 201.791 353.016 201.392C353.417 200.992 353.643 200.45 353.645 199.884V181.555C353.643 180.988 353.418 180.445 353.017 180.044C352.616 179.643 352.072 179.417 351.505 179.416Z" fill="#B8B8B8"/>
<path d="M351.505 210.649H333.185C332.618 210.649 332.074 210.875 331.672 211.276C331.271 211.677 331.046 212.221 331.045 212.789V231.109C331.045 231.39 331.1 231.668 331.207 231.928C331.314 232.188 331.472 232.424 331.671 232.623C331.87 232.822 332.106 232.979 332.366 233.087C332.625 233.194 332.904 233.249 333.185 233.248H351.505C352.073 233.248 352.617 233.023 353.018 232.622C353.419 232.22 353.645 231.676 353.645 231.109V212.789C353.643 212.222 353.418 211.678 353.017 211.277C352.616 210.876 352.072 210.65 351.505 210.649V210.649Z" fill="#B8B8B8"/>
<path d="M353.612 243.643C353.521 243.15 353.26 242.705 352.876 242.383C352.491 242.062 352.007 241.884 351.505 241.882H333.185C332.618 241.882 332.074 242.108 331.672 242.509C331.271 242.91 331.046 243.454 331.045 244.022V262.342C331.045 262.623 331.1 262.902 331.207 263.161C331.314 263.421 331.472 263.657 331.671 263.856C331.87 264.055 332.106 264.213 332.366 264.32C332.625 264.427 332.904 264.482 333.185 264.482H351.505C352.073 264.481 352.617 264.256 353.018 263.855C353.419 263.453 353.645 262.909 353.645 262.342V244.022C353.647 243.895 353.636 243.768 353.612 243.643V243.643Z" fill="#B8B8B8"/>
<path d="M352.337 273.28C352.073 273.171 351.79 273.115 351.505 273.115H333.185C332.904 273.114 332.625 273.169 332.366 273.277C332.106 273.384 331.87 273.542 331.671 273.741C331.472 273.939 331.314 274.175 331.207 274.435C331.1 274.695 331.045 274.974 331.045 275.255V293.575C331.044 293.856 331.099 294.135 331.206 294.395C331.313 294.656 331.47 294.892 331.669 295.091C331.868 295.29 332.105 295.447 332.365 295.555C332.625 295.662 332.904 295.716 333.185 295.715H351.505C352.073 295.715 352.617 295.489 353.018 295.088C353.419 294.687 353.645 294.142 353.645 293.575V275.255C353.644 274.834 353.52 274.422 353.287 274.071C353.054 273.72 352.724 273.445 352.337 273.28Z" fill="#B8B8B8"/>
<path d="M389.989 148.182H371.669C371.102 148.183 370.558 148.408 370.156 148.809C369.755 149.211 369.53 149.755 369.529 150.322V168.65C369.53 168.931 369.585 169.209 369.693 169.468C369.801 169.727 369.958 169.962 370.157 170.16C370.356 170.358 370.592 170.515 370.851 170.622C371.111 170.728 371.388 170.783 371.669 170.782H389.989C390.555 170.782 391.098 170.558 391.5 170.159C391.901 169.759 392.127 169.217 392.129 168.65V150.322C392.127 149.755 391.901 149.212 391.5 148.811C391.1 148.41 390.556 148.184 389.989 148.182V148.182Z" fill="#B8B8B8"/>
<path d="M389.989 179.416H371.669C371.102 179.416 370.557 179.641 370.156 180.043C369.755 180.444 369.53 180.988 369.529 181.555V199.884C369.53 200.164 369.585 200.442 369.693 200.701C369.801 200.96 369.958 201.195 370.157 201.393C370.356 201.591 370.592 201.748 370.851 201.855C371.111 201.962 371.388 202.016 371.669 202.015H389.989C390.555 202.016 391.099 201.791 391.5 201.392C391.901 200.992 392.127 200.45 392.129 199.884V181.555C392.127 180.988 391.901 180.445 391.5 180.044C391.1 179.643 390.556 179.417 389.989 179.416Z" fill="#3E77E7"/>
<path d="M389.989 210.649H371.669C371.102 210.649 370.557 210.875 370.156 211.276C369.755 211.677 369.53 212.221 369.529 212.789V231.109C369.529 231.39 369.584 231.668 369.691 231.928C369.798 232.188 369.956 232.424 370.155 232.623C370.354 232.822 370.59 232.979 370.85 233.087C371.109 233.194 371.388 233.249 371.669 233.248H389.989C390.557 233.248 391.101 233.023 391.502 232.622C391.903 232.22 392.129 231.676 392.129 231.109V212.789C392.127 212.222 391.901 211.678 391.5 211.277C391.1 210.876 390.556 210.65 389.989 210.649V210.649Z" fill="#3E77E7"/>
<path d="M389.989 241.882H371.669C371.22 241.882 370.783 242.024 370.42 242.287C370.056 242.55 369.785 242.921 369.644 243.347C369.568 243.564 369.529 243.792 369.529 244.022V262.342C369.529 262.623 369.584 262.901 369.691 263.161C369.798 263.421 369.956 263.657 370.155 263.856C370.353 264.055 370.59 264.213 370.849 264.32C371.109 264.427 371.388 264.482 371.669 264.482H389.989C390.557 264.481 391.101 264.256 391.502 263.855C391.903 263.453 392.129 262.909 392.129 262.342V244.022C392.127 243.455 391.901 242.911 391.5 242.51C391.099 242.109 390.556 241.883 389.989 241.882V241.882Z" fill="#3E77E7"/>
<path d="M389.989 273.115H371.669C371.388 273.114 371.109 273.169 370.85 273.277C370.59 273.384 370.354 273.542 370.155 273.741C369.956 273.939 369.798 274.175 369.691 274.435C369.584 274.695 369.529 274.974 369.529 275.255V293.575C369.529 293.856 369.584 294.135 369.691 294.395C369.798 294.654 369.956 294.891 370.155 295.089C370.354 295.288 370.59 295.446 370.85 295.553C371.109 295.66 371.388 295.715 371.669 295.715H389.989C390.557 295.715 391.101 295.489 391.502 295.088C391.903 294.687 392.129 294.142 392.129 293.575V275.255C392.129 274.687 391.903 274.143 391.502 273.742C391.101 273.341 390.557 273.115 389.989 273.115V273.115Z" fill="#B8B8B8"/>
<path d="M428.473 148.182H410.153C409.585 148.183 409.041 148.408 408.64 148.809C408.239 149.211 408.013 149.755 408.013 150.322V168.65C408.013 168.931 408.069 169.209 408.177 169.468C408.285 169.727 408.442 169.962 408.641 170.16C408.84 170.358 409.076 170.515 409.335 170.622C409.594 170.728 409.872 170.783 410.153 170.782H428.473C429.039 170.782 429.582 170.558 429.984 170.159C430.385 169.759 430.611 169.217 430.613 168.65V150.322C430.611 149.755 430.385 149.212 429.984 148.811C429.583 148.41 429.04 148.184 428.473 148.182V148.182Z" fill="#3E77E7"/>
<path d="M428.473 179.416H410.153C409.585 179.416 409.041 179.641 408.64 180.043C408.239 180.444 408.013 180.988 408.013 181.555V199.884C408.013 200.164 408.069 200.442 408.177 200.701C408.285 200.96 408.442 201.195 408.641 201.393C408.84 201.591 409.076 201.748 409.335 201.855C409.594 201.962 409.872 202.016 410.153 202.015H428.473C429.039 202.016 429.582 201.791 429.984 201.392C430.385 200.992 430.611 200.45 430.613 199.884V181.555C430.611 180.988 430.385 180.445 429.984 180.044C429.583 179.643 429.04 179.417 428.473 179.416Z" fill="#3E77E7"/>
<path d="M428.473 210.649H410.153C409.585 210.649 409.041 210.875 408.64 211.276C408.239 211.677 408.013 212.221 408.013 212.789V231.109C408.013 231.39 408.068 231.668 408.175 231.928C408.282 232.188 408.44 232.424 408.639 232.623C408.837 232.822 409.074 232.979 409.333 233.087C409.593 233.194 409.872 233.249 410.153 233.248H428.473C429.04 233.248 429.585 233.023 429.986 232.622C430.387 232.22 430.613 231.676 430.613 231.109V212.789C430.611 212.222 430.385 211.678 429.984 211.277C429.583 210.876 429.04 210.65 428.473 210.649V210.649Z" fill="#B8B8B8"/>
<path d="M428.473 241.882H410.153C409.585 241.882 409.041 242.108 408.64 242.509C408.239 242.91 408.013 243.454 408.013 244.022V262.342C408.013 262.623 408.068 262.902 408.175 263.161C408.282 263.421 408.44 263.657 408.639 263.856C408.837 264.055 409.074 264.213 409.333 264.32C409.593 264.427 409.872 264.482 410.153 264.482H428.473C429.041 264.481 429.585 264.256 429.986 263.855C430.387 263.453 430.613 262.909 430.613 262.342V244.022C430.611 243.455 430.385 242.911 429.984 242.51C429.583 242.109 429.04 241.883 428.473 241.882V241.882Z" fill="#3E77E7"/>
<path d="M428.473 273.115H410.153C409.872 273.114 409.593 273.169 409.333 273.277C409.074 273.384 408.837 273.542 408.639 273.741C408.44 273.939 408.282 274.175 408.175 274.435C408.068 274.695 408.013 274.974 408.013 275.255V293.575C408.013 293.856 408.068 294.135 408.175 294.395C408.282 294.654 408.44 294.891 408.639 295.089C408.837 295.288 409.074 295.446 409.333 295.553C409.593 295.66 409.872 295.715 410.153 295.715H428.473C429.041 295.715 429.585 295.489 429.986 295.088C430.387 294.687 430.613 294.142 430.613 293.575V275.255C430.613 274.687 430.387 274.143 429.986 273.742C429.585 273.341 429.041 273.115 428.473 273.115V273.115Z" fill="#3E77E7"/>
<path d="M466.957 148.182H448.637C448.069 148.183 447.525 148.408 447.124 148.809C446.723 149.211 446.497 149.755 446.497 150.322V168.65C446.497 168.931 446.553 169.209 446.661 169.468C446.768 169.727 446.926 169.962 447.125 170.16C447.324 170.358 447.559 170.515 447.819 170.622C448.078 170.728 448.356 170.783 448.637 170.782H466.957C467.523 170.782 468.066 170.558 468.467 170.159C468.868 169.759 469.095 169.217 469.097 168.65V150.322C469.095 149.755 468.869 149.212 468.468 148.811C468.067 148.41 467.524 148.184 466.957 148.182V148.182Z" fill="#3E77E7"/>
<path d="M466.957 179.416H448.637C448.069 179.416 447.525 179.641 447.124 180.043C446.723 180.444 446.497 180.988 446.497 181.555V199.884C446.497 200.164 446.553 200.442 446.661 200.701C446.768 200.96 446.926 201.195 447.125 201.393C447.324 201.591 447.559 201.748 447.819 201.855C448.078 201.962 448.356 202.016 448.637 202.015H466.957C467.523 202.016 468.066 201.791 468.467 201.392C468.868 200.992 469.095 200.45 469.097 199.884V181.555C469.095 180.988 468.869 180.445 468.468 180.044C468.067 179.643 467.524 179.417 466.957 179.416V179.416Z" fill="white"/>
<path d="M466.957 210.649H448.637C448.069 210.649 447.525 210.875 447.124 211.276C446.723 211.677 446.497 212.221 446.497 212.789V231.109C446.496 231.39 446.551 231.668 446.659 231.928C446.766 232.188 446.924 232.424 447.122 232.623C447.321 232.822 447.557 232.979 447.817 233.087C448.077 233.194 448.356 233.249 448.637 233.248H466.957C467.524 233.248 468.068 233.023 468.47 232.622C468.871 232.22 469.097 231.676 469.097 231.109V212.789C469.095 212.222 468.869 211.678 468.468 211.277C468.067 210.876 467.524 210.65 466.957 210.649V210.649Z" fill="white"/>
<path d="M466.957 241.882H448.637C448.069 241.882 447.525 242.108 447.124 242.509C446.723 242.91 446.497 243.454 446.497 244.022V262.342C446.496 262.623 446.551 262.902 446.659 263.161C446.766 263.421 446.924 263.657 447.122 263.856C447.321 264.055 447.557 264.213 447.817 264.32C448.077 264.427 448.356 264.482 448.637 264.482H466.957C467.524 264.481 468.068 264.256 468.47 263.855C468.871 263.453 469.097 262.909 469.097 262.342V244.022C469.095 243.455 468.869 242.911 468.468 242.51C468.067 242.109 467.524 241.883 466.957 241.882V241.882Z" fill="#B8B8B8"/>
<path d="M466.957 273.115H448.637C448.356 273.114 448.077 273.169 447.817 273.277C447.557 273.384 447.321 273.542 447.122 273.74C446.924 273.939 446.766 274.175 446.659 274.435C446.551 274.695 446.496 274.974 446.497 275.255V293.575C446.496 293.856 446.551 294.135 446.659 294.395C446.766 294.654 446.924 294.891 447.122 295.089C447.321 295.288 447.557 295.446 447.817 295.553C448.077 295.66 448.356 295.715 448.637 295.715H466.957C467.524 295.715 468.069 295.489 468.47 295.088C468.871 294.687 469.097 294.142 469.097 293.575V275.255C469.097 274.687 468.871 274.143 468.47 273.742C468.068 273.341 467.524 273.115 466.957 273.115V273.115Z" fill="#3E77E7"/>
<path d="M505.441 148.182H487.112C486.546 148.184 486.004 148.411 485.604 148.812C485.205 149.213 484.981 149.756 484.981 150.322V168.65C484.981 169.216 485.205 169.758 485.605 170.158C486.005 170.557 486.547 170.782 487.112 170.782H505.441C506.007 170.782 506.55 170.558 506.951 170.159C507.352 169.759 507.579 169.217 507.581 168.65V150.322C507.579 149.755 507.353 149.212 506.952 148.811C506.551 148.41 506.008 148.184 505.441 148.182Z" fill="white"/>
<path d="M505.441 179.416H487.112C486.546 179.417 486.004 179.644 485.604 180.045C485.205 180.446 484.98 180.989 484.981 181.555V199.884C484.981 200.449 485.205 200.991 485.605 201.391C486.005 201.791 486.547 202.015 487.112 202.015H505.441C506.007 202.016 506.55 201.791 506.951 201.392C507.352 200.992 507.579 200.45 507.581 199.884V181.555C507.579 180.988 507.353 180.445 506.952 180.044C506.551 179.643 506.008 179.417 505.441 179.416V179.416Z" fill="white"/>
<path d="M505.441 210.649H487.112C486.546 210.651 486.004 210.877 485.604 211.278C485.205 211.679 484.981 212.222 484.981 212.789V231.109C484.98 231.389 485.035 231.667 485.141 231.927C485.248 232.186 485.405 232.422 485.603 232.621C485.801 232.819 486.036 232.977 486.295 233.085C486.554 233.193 486.832 233.248 487.112 233.248H505.441C506.008 233.248 506.552 233.023 506.954 232.622C507.355 232.22 507.58 231.676 507.581 231.109V212.789C507.579 212.222 507.353 211.678 506.952 211.277C506.551 210.876 506.008 210.65 505.441 210.649V210.649Z" fill="white"/>
<path d="M505.441 241.882H487.112C486.546 241.884 486.004 242.11 485.604 242.511C485.205 242.912 484.981 243.456 484.981 244.022V262.342C484.98 262.622 485.034 262.9 485.141 263.16C485.248 263.419 485.405 263.655 485.603 263.854C485.801 264.053 486.036 264.21 486.295 264.318C486.554 264.426 486.832 264.481 487.112 264.482H505.441C506.008 264.481 506.552 264.256 506.954 263.855C507.355 263.453 507.58 262.909 507.581 262.342V244.022C507.579 243.455 507.353 242.911 506.952 242.51C506.551 242.109 506.008 241.883 505.441 241.882V241.882Z" fill="#3E77E7"/>
<path d="M505.441 273.115H487.112C486.832 273.115 486.554 273.171 486.295 273.279C486.036 273.386 485.801 273.544 485.603 273.743C485.405 273.942 485.248 274.177 485.141 274.437C485.034 274.696 484.98 274.974 484.981 275.255V293.575C484.98 293.856 485.034 294.133 485.141 294.393C485.248 294.652 485.405 294.888 485.603 295.087C485.801 295.286 486.036 295.443 486.295 295.551C486.554 295.659 486.832 295.715 487.112 295.715H505.441C506.008 295.715 506.552 295.489 506.954 295.088C507.355 294.687 507.58 294.142 507.581 293.575V275.255C507.58 274.687 507.355 274.143 506.954 273.742C506.552 273.341 506.008 273.115 505.441 273.115V273.115Z" fill="#B8B8B8"/>
<path d="M543.925 148.182H525.596C525.03 148.184 524.488 148.411 524.088 148.812C523.689 149.213 523.464 149.756 523.465 150.322V168.65C523.465 169.216 523.689 169.758 524.089 170.158C524.489 170.557 525.031 170.782 525.596 170.782H543.925C544.491 170.782 545.034 170.558 545.435 170.158C545.836 169.759 546.063 169.217 546.065 168.65V150.322C546.063 149.755 545.837 149.212 545.436 148.811C545.035 148.41 544.492 148.184 543.925 148.182V148.182Z" fill="white"/>
<path d="M543.925 179.416H525.596C525.03 179.417 524.488 179.644 524.088 180.045C523.689 180.446 523.464 180.989 523.465 181.555V199.884C523.465 200.449 523.689 200.991 524.089 201.391C524.489 201.791 525.031 202.015 525.596 202.015H543.925C544.491 202.016 545.034 201.791 545.435 201.392C545.836 200.992 546.063 200.45 546.065 199.884V181.555C546.063 180.988 545.837 180.445 545.436 180.044C545.035 179.643 544.492 179.417 543.925 179.416V179.416Z" fill="white"/>
<path d="M543.925 210.649H525.596C525.03 210.651 524.488 210.877 524.088 211.278C523.689 211.679 523.464 212.222 523.465 212.789V231.109C523.464 231.389 523.518 231.667 523.625 231.927C523.732 232.186 523.889 232.422 524.087 232.621C524.285 232.819 524.52 232.977 524.779 233.085C525.038 233.193 525.316 233.248 525.596 233.248H543.925C544.492 233.248 545.036 233.023 545.437 232.621C545.839 232.22 546.064 231.676 546.065 231.109V212.789C546.063 212.222 545.837 211.678 545.436 211.277C545.035 210.876 544.492 210.65 543.925 210.649V210.649Z" fill="#3E77E7"/>
<path d="M543.925 241.882H525.596C525.03 241.884 524.488 242.11 524.088 242.511C523.689 242.912 523.464 243.456 523.465 244.022V262.342C523.464 262.622 523.518 262.9 523.625 263.16C523.732 263.419 523.889 263.655 524.087 263.854C524.285 264.053 524.52 264.21 524.779 264.318C525.038 264.426 525.316 264.481 525.596 264.482H543.925C544.492 264.481 545.036 264.256 545.437 263.855C545.839 263.453 546.064 262.909 546.065 262.342V244.022C546.063 243.455 545.837 242.911 545.436 242.51C545.035 242.109 544.492 241.883 543.925 241.882V241.882Z" fill="#B8B8B8"/>
<path d="M543.925 273.115H525.596C525.316 273.115 525.038 273.171 524.779 273.279C524.52 273.386 524.285 273.544 524.087 273.743C523.889 273.942 523.732 274.177 523.625 274.437C523.518 274.696 523.464 274.974 523.465 275.255V293.575C523.464 293.856 523.518 294.133 523.625 294.393C523.732 294.652 523.889 294.888 524.087 295.087C524.285 295.286 524.52 295.443 524.779 295.551C525.038 295.659 525.316 295.715 525.596 295.715H543.925C544.492 295.715 545.036 295.489 545.437 295.088C545.839 294.687 546.064 294.142 546.065 293.575V275.255C546.064 274.687 545.839 274.143 545.437 273.742C545.036 273.341 544.492 273.115 543.925 273.115Z" fill="white"/>
<path d="M582.409 148.182H564.08C563.514 148.184 562.972 148.411 562.572 148.812C562.173 149.213 561.948 149.756 561.949 150.322V168.65C561.949 169.216 562.173 169.758 562.573 170.158C562.973 170.557 563.515 170.782 564.08 170.782H582.409C582.975 170.782 583.518 170.558 583.919 170.158C584.32 169.759 584.546 169.217 584.548 168.65V150.322C584.547 149.755 584.321 149.212 583.92 148.811C583.519 148.41 582.976 148.184 582.409 148.182V148.182Z" fill="#3E77E7"/>
<path d="M582.409 179.416H564.08C563.514 179.417 562.972 179.644 562.572 180.045C562.173 180.446 561.948 180.989 561.949 181.555V199.884C561.949 200.449 562.173 200.991 562.573 201.391C562.973 201.791 563.515 202.015 564.08 202.015H582.409C582.975 202.016 583.518 201.791 583.919 201.392C584.32 200.992 584.546 200.45 584.548 199.884V181.555C584.547 180.988 584.321 180.445 583.92 180.044C583.519 179.643 582.976 179.417 582.409 179.416Z" fill="#3E77E7"/>
<path d="M582.409 210.649H564.08C563.514 210.651 562.972 210.877 562.572 211.278C562.173 211.679 561.948 212.222 561.949 212.789V231.109C561.948 231.389 562.002 231.667 562.109 231.927C562.216 232.186 562.373 232.422 562.571 232.621C562.769 232.819 563.004 232.977 563.263 233.085C563.522 233.193 563.8 233.248 564.08 233.248H582.409C582.976 233.248 583.52 233.023 583.921 232.621C584.323 232.22 584.548 231.676 584.548 231.109V212.789C584.547 212.222 584.321 211.678 583.92 211.277C583.519 210.876 582.976 210.65 582.409 210.649V210.649Z" fill="#B8B8B8"/>
<path d="M582.409 241.882H564.08C563.514 241.884 562.972 242.11 562.572 242.511C562.173 242.912 561.948 243.456 561.949 244.022V262.342C561.948 262.622 562.002 262.9 562.109 263.16C562.216 263.419 562.373 263.655 562.571 263.854C562.769 264.053 563.004 264.21 563.263 264.318C563.522 264.426 563.8 264.481 564.08 264.482H582.409C582.976 264.481 583.52 264.256 583.921 263.855C584.323 263.453 584.548 262.909 584.548 262.342V244.022C584.547 243.455 584.321 242.911 583.92 242.51C583.519 242.109 582.976 241.883 582.409 241.882V241.882Z" fill="white"/>
<path d="M582.409 273.115H564.08C563.8 273.115 563.522 273.171 563.263 273.279C563.004 273.386 562.769 273.544 562.571 273.743C562.373 273.942 562.216 274.177 562.109 274.437C562.002 274.696 561.948 274.974 561.949 275.255V293.575C561.948 293.856 562.002 294.133 562.109 294.393C562.216 294.652 562.373 294.888 562.571 295.087C562.769 295.286 563.004 295.443 563.263 295.551C563.522 295.659 563.8 295.715 564.08 295.715H582.409C582.976 295.715 583.52 295.489 583.921 295.088C584.323 294.687 584.548 294.142 584.548 293.575V275.255C584.548 274.687 584.323 274.143 583.921 273.742C583.52 273.341 582.976 273.115 582.409 273.115Z" fill="#3E77E7"/>
<path d="M620.892 148.182H602.564C601.998 148.184 601.456 148.411 601.056 148.812C600.657 149.213 600.432 149.756 600.432 150.322V168.65C600.433 169.216 600.657 169.758 601.057 170.158C601.457 170.557 601.999 170.782 602.564 170.782H620.892C621.459 170.782 622.002 170.558 622.403 170.158C622.804 169.759 623.03 169.217 623.032 168.65V150.322C623.031 149.755 622.805 149.212 622.404 148.811C622.003 148.41 621.459 148.184 620.892 148.182Z" fill="#3E77E7"/>
<path d="M620.892 179.416H602.564C601.998 179.417 601.456 179.644 601.056 180.045C600.657 180.446 600.432 180.989 600.432 181.555V199.884C600.433 200.449 600.657 200.991 601.057 201.391C601.457 201.791 601.999 202.015 602.564 202.015H620.892C621.459 202.016 622.002 201.791 622.403 201.392C622.804 200.992 623.03 200.45 623.032 199.884V181.555C623.031 180.988 622.805 180.445 622.404 180.044C622.003 179.643 621.459 179.417 620.892 179.416V179.416Z" fill="#3E77E7"/>
<path d="M620.892 210.649H602.564C601.998 210.651 601.456 210.877 601.056 211.278C600.657 211.679 600.432 212.222 600.433 212.789V231.109C600.432 231.389 600.486 231.667 600.593 231.927C600.7 232.186 600.857 232.422 601.055 232.621C601.253 232.819 601.488 232.977 601.747 233.085C602.006 233.193 602.284 233.248 602.564 233.248H620.892C621.46 233.248 622.004 233.023 622.405 232.621C622.806 232.22 623.032 231.676 623.032 231.109V212.789C623.031 212.222 622.805 211.678 622.404 211.277C622.003 210.876 621.459 210.65 620.892 210.649Z" fill="#B8B8B8"/>
<path d="M620.892 241.882H602.564C601.998 241.884 601.456 242.11 601.056 242.511C600.657 242.912 600.432 243.456 600.433 244.022V262.342C600.432 262.622 600.486 262.9 600.593 263.16C600.7 263.419 600.857 263.655 601.055 263.854C601.253 264.053 601.488 264.21 601.747 264.318C602.006 264.426 602.284 264.481 602.564 264.482H620.892C621.46 264.481 622.004 264.256 622.405 263.855C622.807 263.453 623.032 262.909 623.032 262.342V244.022C623.031 243.455 622.805 242.911 622.404 242.51C622.003 242.109 621.459 241.883 620.892 241.882V241.882Z" fill="#3E77E7"/>
<path d="M620.892 273.115H602.564C602.284 273.115 602.006 273.171 601.747 273.279C601.488 273.386 601.253 273.544 601.055 273.743C600.857 273.942 600.7 274.177 600.593 274.437C600.486 274.696 600.432 274.974 600.433 275.255V293.575C600.432 293.856 600.486 294.133 600.593 294.393C600.7 294.652 600.857 294.888 601.055 295.087C601.253 295.286 601.488 295.443 601.747 295.551C602.006 295.659 602.284 295.715 602.564 295.715H620.892C621.46 295.715 622.004 295.489 622.405 295.088C622.807 294.687 623.032 294.142 623.032 293.575V275.255C623.032 274.687 622.807 274.143 622.405 273.742C622.004 273.341 621.46 273.115 620.892 273.115V273.115Z" fill="#3E77E7"/>
<path d="M659.376 148.182H641.048C640.482 148.184 639.939 148.411 639.54 148.812C639.14 149.213 638.916 149.756 638.916 150.322V168.65C638.916 169.216 639.141 169.758 639.541 170.158C639.94 170.557 640.483 170.782 641.048 170.782H659.376C659.942 170.782 660.486 170.558 660.887 170.158C661.288 169.759 661.514 169.217 661.516 168.65V150.322C661.514 149.755 661.288 149.212 660.887 148.811C660.487 148.41 659.943 148.184 659.376 148.182V148.182Z" fill="#B8B8B8"/>
<path d="M659.376 179.416H641.048C640.482 179.417 639.939 179.644 639.54 180.045C639.14 180.446 638.916 180.989 638.916 181.555V199.884C638.916 200.449 639.141 200.991 639.541 201.391C639.94 201.791 640.483 202.015 641.048 202.015H659.376C659.942 202.016 660.486 201.791 660.887 201.392C661.288 200.992 661.514 200.45 661.516 199.884V181.555C661.514 180.988 661.288 180.445 660.887 180.044C660.487 179.643 659.943 179.417 659.376 179.416V179.416Z" fill="#3E77E7"/>
<path d="M659.376 210.649H641.048C640.482 210.651 639.939 210.877 639.54 211.278C639.14 211.679 638.916 212.222 638.916 212.789V231.109C638.915 231.389 638.97 231.667 639.077 231.927C639.184 232.186 639.34 232.422 639.538 232.621C639.736 232.819 639.972 232.977 640.231 233.085C640.49 233.193 640.767 233.248 641.048 233.248H659.376C659.944 233.248 660.488 233.023 660.889 232.621C661.29 232.22 661.516 231.676 661.516 231.109V212.789C661.514 212.222 661.288 211.678 660.887 211.277C660.487 210.876 659.943 210.65 659.376 210.649V210.649Z" fill="#3E77E7"/>
<path d="M659.376 241.882H641.048C640.482 241.884 639.939 242.11 639.54 242.511C639.14 242.912 638.916 243.456 638.916 244.022V262.342C638.915 262.622 638.97 262.9 639.077 263.16C639.184 263.419 639.34 263.655 639.538 263.854C639.736 264.053 639.972 264.21 640.231 264.318C640.49 264.426 640.767 264.481 641.048 264.482H659.376C659.944 264.481 660.488 264.256 660.889 263.855C661.29 263.453 661.516 262.909 661.516 262.342V244.022C661.514 243.455 661.288 242.911 660.887 242.51C660.487 242.109 659.943 241.883 659.376 241.882V241.882Z" fill="#3E77E7"/>
<path d="M659.376 273.115H641.048C640.767 273.115 640.49 273.171 640.231 273.279C639.972 273.386 639.736 273.544 639.538 273.743C639.34 273.942 639.184 274.177 639.077 274.437C638.97 274.696 638.915 274.974 638.916 275.255V293.575C638.915 293.856 638.97 294.133 639.077 294.393C639.184 294.652 639.34 294.888 639.538 295.087C639.736 295.286 639.972 295.443 640.231 295.551C640.49 295.659 640.767 295.715 641.048 295.715H659.376C659.944 295.715 660.488 295.489 660.889 295.088C661.29 294.687 661.516 294.142 661.516 293.575V275.255C661.516 274.687 661.29 274.143 660.889 273.742C660.488 273.341 659.944 273.115 659.376 273.115V273.115Z" fill="#B8B8B8"/>
<path d="M697.86 148.182H679.532C678.966 148.184 678.423 148.411 678.024 148.812C677.624 149.213 677.4 149.756 677.4 150.322V168.65C677.4 169.216 677.625 169.758 678.025 170.158C678.424 170.557 678.966 170.782 679.532 170.782H697.86C698.426 170.782 698.97 170.558 699.371 170.158C699.772 169.759 699.998 169.217 700 168.65V150.322C699.998 149.755 699.772 149.212 699.371 148.811C698.971 148.41 698.427 148.184 697.86 148.182V148.182Z" fill="#B8B8B8"/>
<path d="M697.86 179.416H679.532C678.966 179.418 678.423 179.644 678.024 180.045C677.624 180.446 677.4 180.989 677.4 181.555V199.884C677.4 200.449 677.625 200.991 678.025 201.391C678.424 201.791 678.967 202.015 679.532 202.015H697.86C698.426 202.016 698.97 201.791 699.371 201.392C699.772 200.992 699.998 200.45 700 199.884V181.555C699.998 180.988 699.772 180.445 699.371 180.044C698.971 179.643 698.427 179.417 697.86 179.416V179.416Z" fill="#B8B8B8"/>
<path d="M697.86 210.649H679.532C678.966 210.651 678.423 210.877 678.024 211.278C677.624 211.679 677.4 212.222 677.4 212.789V231.109C677.399 231.389 677.454 231.667 677.561 231.927C677.667 232.186 677.824 232.422 678.022 232.621C678.22 232.819 678.456 232.977 678.715 233.085C678.974 233.193 679.251 233.248 679.532 233.248H697.86C698.428 233.248 698.972 233.023 699.373 232.621C699.774 232.22 700 231.676 700 231.109V212.789C699.998 212.222 699.772 211.678 699.371 211.277C698.971 210.876 698.427 210.65 697.86 210.649V210.649Z" fill="#3E77E7"/>
<path d="M697.86 241.882H679.532C678.966 241.884 678.423 242.11 678.024 242.511C677.624 242.912 677.4 243.456 677.4 244.022V262.342C677.399 262.622 677.454 262.9 677.561 263.16C677.667 263.419 677.824 263.655 678.022 263.854C678.22 264.053 678.456 264.21 678.715 264.318C678.974 264.426 679.251 264.481 679.532 264.482H697.86C698.428 264.481 698.972 264.256 699.373 263.855C699.774 263.453 700 262.909 700 262.342V244.022C699.998 243.455 699.772 242.911 699.371 242.51C698.971 242.109 698.427 241.883 697.86 241.882V241.882Z" fill="#B8B8B8"/>
<path d="M697.86 273.115H679.532C679.251 273.115 678.974 273.171 678.715 273.279C678.456 273.386 678.22 273.544 678.022 273.743C677.824 273.942 677.667 274.177 677.561 274.437C677.454 274.696 677.399 274.974 677.4 275.255V293.575C677.399 293.856 677.454 294.133 677.561 294.393C677.667 294.652 677.824 294.888 678.022 295.087C678.22 295.286 678.456 295.443 678.715 295.551C678.974 295.659 679.251 295.715 679.532 295.715H697.86C698.428 295.715 698.972 295.489 699.373 295.088C699.774 294.687 700 294.142 700 293.575V275.255C700 274.687 699.774 274.143 699.373 273.742C698.972 273.341 698.428 273.115 697.86 273.115V273.115Z" fill="#B8B8B8"/>
<path d="M276.609 543.228H276.099L276.535 543.17L276.609 543.228Z" fill="#2F2E41"/>
<path d="M232.759 201.682C263.813 201.682 288.988 176.507 288.988 145.453C288.988 114.398 263.813 89.2231 232.759 89.2231C201.704 89.2231 176.529 114.398 176.529 145.453C176.529 176.507 201.704 201.682 232.759 201.682Z" fill="#FFB6B6"/>
<path d="M282.001 104.226C282.001 104.226 296.707 76.1113 264.352 73.5554C264.352 73.5554 236.769 48.5341 208.654 68.9811C208.654 68.9811 193.319 68.9811 184.933 86.3348C184.933 86.3348 172.872 81.7605 170.221 94.0025C170.221 94.0025 161.396 119.561 170.221 142.564C179.047 165.567 181.978 168.123 181.978 168.123C181.978 168.123 167.476 119.896 202.776 117.34C238.075 114.784 277.576 92.7246 280.518 120.839C283.46 148.954 287.887 155.881 287.887 155.881C287.887 155.881 315.827 115.728 282.001 104.226Z" fill="#484335"/>
<path d="M378.212 284.028L378.031 284.983L375.998 295.715L361.949 369.95L361.118 374.32L359.373 383.563L356.987 396.171L351.695 424.112L350.18 432.12L349.612 435.124L349.415 436.178L347.843 444.465L347.366 446.967L343.53 475.386L340.181 500.15L351.39 511.359L344.707 518.042L340.321 543.169L340.329 543.226H161.3C154.057 538.535 146.919 533.699 139.885 528.717L141.358 517.688C141.358 517.688 146.428 497.994 144.296 495.64C142.173 493.286 137.515 489.081 137.515 489.081L143.383 475.386L144.198 473.485L142.832 445.148L142.799 444.465L142.346 435.124L142.288 433.923L142.198 432.12L140.461 396.171L140.428 395.579L139.902 384.682L139.408 374.32L139.194 369.95L137.079 326.224L135.647 296.53L134.396 270.679L139.424 268.975L193.208 250.696L215.487 221.734L261.855 222.08L284.554 222.253L322.428 257.379L331.045 261.494L331.111 261.527L337.292 264.482L352.962 271.963L369.529 279.88L378.031 283.938L378.212 284.028Z" fill="#CACACA"/>
<path d="M221.479 458.869C218.081 460.185 214.436 460.741 210.8 460.496C207.164 460.251 203.627 459.212 200.436 457.452C197.245 455.692 194.479 453.254 192.333 450.309C190.186 447.365 188.711 443.985 188.012 440.409L100.313 427.967L130.8 393.481L209.406 410.584C215.492 409.807 221.651 411.29 226.717 414.752C231.782 418.213 235.402 423.412 236.89 429.364C238.378 435.316 237.631 441.607 234.791 447.045C231.95 452.483 227.214 456.69 221.479 458.869V458.869Z" fill="#FFB6B6"/>
<path d="M182.377 396.171C180.752 394.112 178.453 392.692 175.884 392.163L139.902 384.682L136.206 383.917C134.059 383.468 132.03 382.572 130.253 381.285C128.476 379.999 126.99 378.352 125.894 376.452C124.756 374.457 124.068 372.238 123.878 369.95C123.706 367.87 123.955 365.776 124.61 363.794L137.079 326.224L145.169 301.846C146.149 298.906 146.728 295.847 146.889 292.752C147.34 284.187 144.69 275.746 139.424 268.975C134.795 263.024 128.374 258.72 121.111 256.699C113.848 254.677 106.126 255.045 99.0885 257.749C98.8828 257.824 98.6688 257.906 98.463 257.988C93.4157 260.003 88.9063 263.165 85.2911 267.223C81.676 271.281 79.0541 276.124 77.6327 281.37L68.843 313.344L50.7121 379.258C48.8971 385.863 48.5304 392.781 49.6372 399.54C50.7439 406.299 53.2979 412.739 57.1244 418.419C60.9509 424.099 65.9595 428.886 71.8074 432.451C77.6553 436.016 84.2044 438.275 91.0066 439.075L142.831 445.148L166.814 447.963C169.587 448.296 172.384 447.573 174.647 445.936C176.911 444.299 178.475 441.87 179.027 439.132C179.066 438.983 179.096 438.832 179.118 438.68L179.694 435.124L184.574 405.183L184.624 404.879C184.878 403.351 184.81 401.787 184.423 400.287C184.036 398.787 183.339 397.385 182.377 396.171Z" fill="#CACACA"/>
<path d="M277.34 459.829C280.889 460.653 284.576 460.689 288.141 459.934C291.706 459.179 295.062 457.651 297.972 455.459C300.883 453.266 303.278 450.463 304.988 447.245C306.697 444.027 307.681 440.473 307.869 436.834L392.936 412.149L357.891 382.307L282.482 410.323C276.348 410.413 270.459 412.75 265.933 416.891C261.406 421.032 258.556 426.69 257.922 432.792C257.288 438.894 258.914 445.017 262.493 450C266.072 454.983 271.354 458.48 277.34 459.829V459.829Z" fill="#FFB6B6"/>
<path d="M435.172 356.93L394.713 263.815C391.404 256.17 385.494 249.945 378.031 246.244C375.724 245.108 373.301 244.225 370.805 243.61C370.418 243.511 370.031 243.421 369.644 243.347C364.351 242.192 358.86 242.293 353.612 243.643C348.816 244.875 344.332 247.105 340.455 250.186C336.578 253.268 333.394 257.132 331.111 261.527C331.086 261.564 331.064 261.602 331.045 261.642C328.495 266.576 327.139 272.039 327.086 277.593C327.033 283.146 328.285 288.635 330.741 293.616L331.243 294.62L359.834 352.042C360.81 354.005 361.361 356.153 361.448 358.344C361.536 360.535 361.16 362.72 360.344 364.755C359.528 366.791 358.291 368.631 356.713 370.154C355.136 371.678 353.255 372.851 351.193 373.596L349.184 374.32L313.071 387.365C310.361 388.332 308.132 390.313 306.853 392.89C305.575 395.468 305.346 398.441 306.215 401.183L306.306 401.471L316.429 433.865C316.478 434.013 316.527 434.161 316.585 434.309C316.674 434.589 316.784 434.861 316.914 435.124C317.99 437.537 319.892 439.487 322.277 440.623C324.662 441.759 327.374 442.007 329.926 441.321L349.415 436.178L353.39 435.124L403.717 421.833C410.339 420.083 416.505 416.923 421.792 412.568C427.079 408.214 431.363 402.769 434.35 396.605C437.337 390.442 438.957 383.706 439.099 376.858C439.241 370.01 437.902 363.212 435.172 356.93L435.172 356.93Z" fill="#CACACA"/>
<path d="M36.9514 435.124C48.6138 449.349 61.1914 462.798 74.6041 475.386H446.579C450.163 475.391 453.598 476.818 456.132 479.353C458.665 481.888 460.09 485.324 460.093 488.908L460.628 583.167C483.511 572.653 504.941 559.229 524.386 543.226C529.785 538.79 535.017 534.162 540.081 529.342C543.398 526.198 546.635 522.978 549.793 519.68C573.466 495.019 592.635 466.401 606.432 435.124H36.9514Z" fill="#3F3D56"/>
<path d="M549.793 519.68C546.641 522.98 543.403 526.201 540.081 529.342H460.9V519.68H549.793Z" fill="white"/>
<path d="M377.471 210.649C377.08 209.927 376.501 209.324 375.796 208.904C375.09 208.484 374.284 208.262 373.463 208.262H103.648C102.438 208.265 101.279 208.748 100.425 209.604C99.57 210.46 99.0896 211.62 99.0886 212.83V374.32H378.031V212.83C378.035 212.067 377.842 211.315 377.471 210.649V210.649Z" fill="#3F3D56"/>
<path d="M98.8443 369.948V389.876C98.8443 390.703 99.007 391.521 99.3232 392.284C99.6393 393.047 100.103 393.741 100.687 394.325C101.271 394.909 101.965 395.372 102.728 395.689C103.491 396.005 104.309 396.167 105.135 396.167H208.091V435.496H206.723C206.616 435.496 206.51 435.517 206.41 435.558C206.311 435.599 206.221 435.66 206.145 435.735C206.069 435.811 206.009 435.901 205.968 436.001C205.927 436.1 205.906 436.206 205.906 436.313V439.049C205.906 439.156 205.927 439.262 205.968 439.362C206.009 439.461 206.069 439.551 206.145 439.627C206.221 439.703 206.311 439.763 206.41 439.804C206.51 439.845 206.616 439.866 206.723 439.866H270.637C270.744 439.866 270.85 439.845 270.949 439.804C271.049 439.763 271.139 439.703 271.215 439.627C271.29 439.551 271.351 439.461 271.392 439.362C271.433 439.262 271.454 439.156 271.454 439.049V436.313C271.454 436.206 271.433 436.1 271.392 436.001C271.351 435.901 271.29 435.811 271.215 435.735C271.139 435.66 271.049 435.599 270.949 435.558C270.85 435.517 270.744 435.496 270.637 435.496H269.269V396.167H372.225C373.051 396.167 373.869 396.005 374.632 395.689C375.395 395.372 376.089 394.909 376.673 394.325C377.257 393.741 377.721 393.047 378.037 392.284C378.353 391.521 378.516 390.703 378.516 389.876V369.948H98.8443Z" fill="#3F3D56"/>
<path d="M235.301 312.752C249.53 312.752 261.066 301.216 261.066 286.986C261.066 272.756 249.53 261.221 235.301 261.221C221.071 261.221 209.535 272.756 209.535 286.986C209.535 301.216 221.071 312.752 235.301 312.752Z" fill="#3E77E7"/>
<path d="M300.948 142.38H296.833C296.833 111.27 266.044 90.8845 234.984 90.868C230.466 90.8548 225.958 91.2932 221.528 92.1766C216.54 93.1724 211.363 94.3658 206.277 95.9213C186.22 102.069 167.62 113.953 167.62 142.38C167.616 147.901 168.319 153.399 169.711 158.742L165.728 159.779C164.25 154.097 163.503 148.25 163.505 142.38C163.505 117.542 173.703 100.481 191.315 90.3084C200.574 84.9588 211.874 81.5104 224.82 79.8315C230.207 79.1148 235.653 78.9493 241.074 79.3377C276.793 81.9054 300.948 109.295 300.948 142.38Z" fill="#3E77E7"/>
<path d="M307.804 144.66L306.182 132.677C305.782 129.651 304.325 126.864 302.067 124.809C300.618 123.469 298.883 122.477 296.994 121.907C295.105 121.336 293.111 121.203 291.162 121.517L288.586 121.871C287.882 121.963 287.202 122.195 286.587 122.553C285.973 122.91 285.435 123.386 285.006 123.953C284.573 124.518 284.257 125.163 284.075 125.851C283.892 126.539 283.848 127.256 283.945 127.961L287.689 155.565C287.844 156.69 288.348 157.738 289.131 158.561C289.913 159.383 290.935 159.939 292.051 160.149C292.382 160.215 292.718 160.248 293.055 160.248C293.298 160.248 293.54 160.231 293.78 160.198L296.66 159.811C298.416 159.578 300.106 158.989 301.626 158.079C303.146 157.169 304.464 155.957 305.499 154.519C305.721 154.207 305.935 153.886 306.133 153.557C307.675 150.864 308.264 147.729 307.804 144.66Z" fill="#3E77E7"/>
<path d="M286.924 122.373C286.168 122.74 285.511 123.282 285.006 123.953C284.573 124.518 284.257 125.163 284.075 125.851C283.892 126.539 283.848 127.256 283.945 127.961L287.689 155.565C287.844 156.69 288.348 157.738 289.131 158.561C289.913 159.383 290.935 159.939 292.051 160.149L286.924 122.373Z" fill="#DCE3F1"/>
<path d="M307.804 144.66L306.182 132.677C305.782 129.651 304.325 126.864 302.067 124.809L305.795 152.273C305.851 152.714 305.965 153.145 306.133 153.557C307.675 150.864 308.264 147.729 307.804 144.66V144.66Z" fill="#3F3D56"/>
<path d="M294.99 153.294C296.116 153.141 296.682 150.461 296.254 147.308C295.826 144.156 294.567 141.723 293.441 141.876C292.315 142.029 291.749 144.709 292.176 147.862C292.604 151.014 293.863 153.447 294.99 153.294Z" fill="#3F3D56"/>
<path d="M292.521 138.48C293.647 138.327 294.213 135.647 293.785 132.494C293.357 129.341 292.098 126.909 290.972 127.062C289.846 127.215 289.28 129.895 289.707 133.047C290.135 136.2 291.395 138.632 292.521 138.48Z" fill="#3F3D56"/>
<path d="M308.158 144.241C309.284 144.088 309.85 141.408 309.422 138.255C308.994 135.102 307.735 132.67 306.609 132.823C305.483 132.976 304.917 135.656 305.344 138.808C305.772 141.961 307.032 144.393 308.158 144.241Z" fill="#3F3D56"/>
<path d="M234.984 90.868C230.466 90.8548 225.958 91.2932 221.528 92.1766C216.54 93.1724 211.363 94.3658 206.277 95.9213C198.335 95.5345 192.492 93.4769 191.315 90.3084C200.574 84.9588 211.874 81.5104 224.82 79.8315C230.207 79.1148 235.653 78.9493 241.074 79.3377C241.648 79.6741 242.144 80.1281 242.53 80.67C242.916 81.2118 243.182 81.8292 243.313 82.4815C243.699 85.3457 240.432 88.3907 234.984 90.868Z" fill="#3F3D56"/>
<path d="M182.443 170.938L176.106 144.594C175.88 143.644 175.378 142.781 174.663 142.115C173.949 141.449 173.053 141.008 172.089 140.849C171.817 140.807 171.542 140.785 171.266 140.783C170.878 140.785 170.491 140.832 170.114 140.923L167.662 141.516C164.504 142.28 161.778 144.265 160.082 147.036C158.387 149.807 157.86 153.138 158.617 156.297L161.456 168.116C162.104 170.898 163.648 173.39 165.851 175.21C166.208 175.498 166.582 175.765 166.97 176.008C168.35 176.873 169.889 177.452 171.496 177.712C173.103 177.973 174.746 177.908 176.328 177.523L178.772 176.93C179.419 176.779 180.027 176.496 180.558 176.099C181.349 175.522 181.95 174.724 182.285 173.805C182.621 172.886 182.676 171.889 182.443 170.938Z" fill="#3E77E7"/>
<path d="M169.158 166.037C170.262 165.771 170.555 163.048 169.81 159.954C169.066 156.861 167.567 154.569 166.462 154.835C165.357 155.1 165.065 157.824 165.809 160.917C166.554 164.011 168.053 166.303 169.158 166.037Z" fill="#3F3D56"/>
<path d="M160.927 168.506C162.032 168.24 162.324 165.517 161.58 162.423C160.836 159.33 159.337 157.038 158.232 157.304C157.127 157.569 156.835 160.293 157.579 163.386C158.324 166.48 159.823 168.772 160.927 168.506Z" fill="#3F3D56"/>
<path d="M182.846 170.84L176.509 144.495C176.262 143.467 175.717 142.534 174.943 141.814C174.168 141.094 173.199 140.618 172.155 140.446L180.805 176.428C181.659 175.802 182.309 174.938 182.672 173.943C183.036 172.949 183.096 171.869 182.846 170.84V170.84Z" fill="#DCE3F1"/>
<path d="M160.049 151.079C159.874 150.347 159.546 149.66 159.086 149.063C158.195 151.37 158.031 153.894 158.617 156.297L161.456 168.116C162.104 170.898 163.649 173.39 165.851 175.21L160.049 151.079Z" fill="#3F3D56"/>
</g>
<defs>
<clipPath id="clip0_81_428">
<rect width="700" height="609.709" fill="white"/>
</clipPath>
</defs>
</svg>
